<svg width="40" height="40" viewBox="0 0 40 40" fill="none" xmlns="http://www.w3.org/2000/svg">
<mask id="mask0_66_226" style="mask-type:alpha" maskUnits="userSpaceOnUse" x="0" y="0" width="40" height="40">
<rect width="40" height="40" fill="#D9D9D9"/>
</mask>
<g mask="url(#mask0_66_226)">
<path d="M12.9167 21.1249H27.0833C27.4375 21.1249 27.7344 21.0044 27.974 20.7635C28.2136 20.5225 28.3333 20.2239 28.3333 19.8676C28.3333 19.5114 28.2136 19.2152 27.974 18.9791C27.7344 18.743 27.4375 18.6249 27.0833 18.6249H12.9167C12.5625 18.6249 12.2656 18.7454 12.0261 18.9864C11.7865 19.2274 11.6667 19.526 11.6667 19.8822C11.6667 20.2385 11.7865 20.5346 12.0261 20.7708C12.2656 21.0069 12.5625 21.1249 12.9167 21.1249ZM20.0111 36.6666C17.7129 36.6666 15.5532 36.2291 13.5319 35.3541C11.5106 34.4791 9.74307 33.2846 8.22918 31.7708C6.71529 30.2569 5.52084 28.4882 4.64584 26.4649C3.77084 24.4415 3.33334 22.2796 3.33334 19.9791C3.33334 17.6786 3.77084 15.5166 4.64584 13.4933C5.52084 11.4699 6.71529 9.70825 8.22918 8.20825C9.74307 6.70825 11.5117 5.52075 13.5351 4.64575C15.5584 3.77075 17.7203 3.33325 20.0208 3.33325C22.3214 3.33325 24.4833 3.77075 26.5066 4.64575C28.53 5.52075 30.2917 6.70825 31.7917 8.20825C33.2917 9.70825 34.4792 11.4721 35.3542 13.4999C36.2292 15.5277 36.6667 17.6907 36.6667 19.9888C36.6667 22.287 36.2292 24.4467 35.3542 26.468C34.4792 28.4893 33.2917 30.2543 31.7917 31.7631C30.2917 33.2719 28.5278 34.4663 26.5 35.3464C24.4722 36.2265 22.3093 36.6666 20.0111 36.6666ZM20.0208 34.1666C23.9514 34.1666 27.2917 32.7846 30.0417 30.0208C32.7917 27.2569 34.1667 23.9096 34.1667 19.9791C34.1667 16.0485 32.7943 12.7083 30.0495 9.95825C27.3047 7.20825 23.9549 5.83325 20 5.83325C16.0833 5.83325 12.7431 7.20564 9.97918 9.95042C7.21529 12.6952 5.83334 16.0451 5.83334 19.9999C5.83334 23.9166 7.21529 27.2569 9.97918 30.0208C12.7431 32.7846 16.0903 34.1666 20.0208 34.1666Z" fill="#5B5B5B"/>
</g>
</svg>
