<svg width="40" height="40" viewBox="0 0 40 40" fill="none" xmlns="http://www.w3.org/2000/svg">
<mask id="mask0_61_57" style="mask-type:alpha" maskUnits="userSpaceOnUse" x="0" y="0" width="40" height="40">
<rect width="40" height="40" fill="#D9D9D9"/>
</mask>
<g mask="url(#mask0_61_57)">
<path d="M18.875 21.4166V27.0833C18.875 27.4374 18.9955 27.7343 19.2365 27.9739C19.4775 28.2135 19.7761 28.3333 20.1323 28.3333C20.4886 28.3333 20.7847 28.2135 21.0208 27.9739C21.257 27.7343 21.375 27.4374 21.375 27.0833V21.4166H27.0833C27.4375 21.4166 27.7344 21.2961 27.974 21.0551C28.2136 20.8141 28.3333 20.5155 28.3333 20.1593C28.3333 19.803 28.2136 19.5069 27.974 19.2708C27.7344 19.0346 27.4375 18.9166 27.0833 18.9166H21.375V12.9166C21.375 12.5624 21.2545 12.2655 21.0136 12.026C20.7726 11.7864 20.4739 11.6666 20.1177 11.6666C19.7615 11.6666 19.4653 11.7864 19.2292 12.026C18.9931 12.2655 18.875 12.5624 18.875 12.9166V18.9166H12.9167C12.5625 18.9166 12.2656 19.0371 12.0261 19.278C11.7865 19.519 11.6667 19.8177 11.6667 20.1739C11.6667 20.5301 11.7865 20.8263 12.0261 21.0624C12.2656 21.2985 12.5625 21.4166 12.9167 21.4166H18.875ZM20.0111 36.6666C17.7129 36.6666 15.5532 36.2291 13.5319 35.3541C11.5106 34.4791 9.74307 33.2846 8.22918 31.7708C6.71529 30.2569 5.52084 28.4882 4.64584 26.4649C3.77084 24.4415 3.33334 22.2796 3.33334 19.9791C3.33334 17.6786 3.77084 15.5166 4.64584 13.4933C5.52084 11.4699 6.71529 9.70825 8.22918 8.20825C9.74307 6.70825 11.5117 5.52075 13.5351 4.64575C15.5584 3.77075 17.7203 3.33325 20.0208 3.33325C22.3214 3.33325 24.4833 3.77075 26.5066 4.64575C28.53 5.52075 30.2917 6.70825 31.7917 8.20825C33.2917 9.70825 34.4792 11.4721 35.3542 13.4999C36.2292 15.5277 36.6667 17.6907 36.6667 19.9888C36.6667 22.287 36.2292 24.4467 35.3542 26.468C34.4792 28.4893 33.2917 30.2543 31.7917 31.7631C30.2917 33.2719 28.5278 34.4663 26.5 35.3464C24.4722 36.2265 22.3093 36.6666 20.0111 36.6666ZM20.0208 34.1666C23.9514 34.1666 27.2917 32.7846 30.0417 30.0208C32.7917 27.2569 34.1667 23.9096 34.1667 19.9791C34.1667 16.0485 32.7943 12.7083 30.0495 9.95825C27.3047 7.20825 23.9549 5.83325 20 5.83325C16.0833 5.83325 12.7431 7.20564 9.97918 9.95042C7.21529 12.6952 5.83334 16.0451 5.83334 19.9999C5.83334 23.9166 7.21529 27.2569 9.97918 30.0208C12.7431 32.7846 16.0903 34.1666 20.0208 34.1666Z" fill="#5B5B5B"/>
</g>
</svg>
